<?xml version="1.0" standalone="no"?><!DOCTYPE svg PUBLIC "-//W3C//DTD SVG 1.1//EN" "http://www.w3.org/Graphics/SVG/1.1/DTD/svg11.dtd"><svg t="1592020224383" class="icon" viewBox="0 0 1232 1024" version="1.1" xmlns="http://www.w3.org/2000/svg" p-id="4053" xmlns:xlink="http://www.w3.org/1999/xlink" width="240.625" height="200"><defs><style type="text/css"></style></defs><path d="M1178.3 712.2c1.9 0 1.9-3 0-3-2 0-2 3 0 3zM1231.2 780.2c1.9 0 1.9-3 0-3-2 0-2 3 0 3z" fill="#FEF8FB" p-id="4054"></path><path d="M367.1 682.3c-35.3 15.7-63.4 30.3-71.5 38.9-24.5 26-48.4 91.2-17.8 140.2 29.7 47.5 148.4 86.6 345.2 48.7 11.5-2.2 21.8-8.7 28.6-18.3 20.2-28.8 65.6-92.5 92.4-121.6 35.2-38.3 36.7-55.1 29.1-64.3-5.4-6.5-90.4-52.5-152.4-77.4" fill="#FFFFFF" p-id="4055"></path><path d="M475.9 936.7c-93.4 0-177.5-19.4-208.3-68.8-32.9-52.7-10-123.8 19.2-154.9 3.2-3.4 13.1-13.9 75.4-41.7 6.1-2.7 13.2 0 15.9 6.1 2.7 6.1 0 13.2-6.1 15.9-53.7 23.9-65.3 33.7-67.6 36.1C285.1 750 259.6 809.7 288 855c24.1 38.5 132.6 81.8 332.7 43.2 8.6-1.7 16.1-6.4 21-13.4C660.5 857.9 707.4 792 735 762c32.7-35.5 30.1-46 28.9-48-9.4-7.5-87.4-50-147.9-74.3-6.2-2.5-9.2-9.5-6.7-15.7 2.5-6.2 9.5-9.2 15.7-6.7 58.3 23.4 149 71 157.2 80.9 18.7 22.4-5.9 54.6-29.5 80.2-26.6 28.9-72.8 93.8-91.3 120.3-8.5 12.1-21.4 20.4-36.2 23.3-48.1 9.3-100 14.7-149.3 14.7z" fill="#1B1C26" p-id="4056"></path><path d="M287.5 441.3c-31.2-28.7-44.1-109-39.4-161.7C259.6 151 365.7 99.4 475.1 99.4c98.7 0 197.7 22.3 245.7 123.5 46.7 98.7 22.2 132.9 12.6 135.5l-9.6 2.6s-12.1 106-69.9 106c0 0-21.9 167.7-127.6 175.7-34.8 2.6-65.4-14.9-94.4-38.5" fill="#FFFFFF" p-id="4057"></path><path d="M519.4 655c-38.9 0-71.1-21.9-95.1-41.4-5.2-4.2-6-11.8-1.8-17 4.2-5.2 11.8-6 17-1.8 32.9 26.8 59.4 37.8 85.9 35.8 94.8-7.1 116.3-163.7 116.5-165.2 0.8-6 5.9-10.5 12-10.5 45.6 0 57.7-94.3 57.8-95.2 0.6-4.9 4.1-9 8.8-10.3l8.8-2.4c6.1-4.9 19.1-37.3-19.5-118.9-37.6-79.5-112.2-116.6-234.8-116.6h-0.1C289.5 111.5 263.6 241 260 280.7c-4.6 52 8.8 127.1 35.6 151.7 4.9 4.5 5.2 12.1 0.7 17s-12.1 5.2-17 0.7c-36.9-34-47.6-122.5-43.2-171.6C248.7 137.6 367.8 87.3 475 87.3h0.1c83.6 0 201.2 13.6 256.6 130.4 37.4 78.9 30.3 118.2 22.7 134.6-4.3 9.4-10.8 15.8-17.9 17.7l-2 0.5c-4.2 25.1-20.5 98.4-70.2 107.5-6.6 37.4-37.1 169.1-137.1 176.6-2.6 0.3-5.2 0.4-7.8 0.4z" fill="#1B1C26" p-id="4058"></path><path d="M368.2 524.5s-10.4 127.8 11.3 195.2c21.7 67.4 21.7 93.9 21.7 93.9" fill="#FFFFFF" p-id="4059"></path><path d="M401.2 825.6c-6.7 0-12.1-5.4-12.1-12.1 0-0.2-0.6-26.3-21.1-90.2-22.1-68.9-12.3-194.5-11.8-199.9 0.5-6.6 6.3-11.7 13-11 6.6 0.5 11.6 6.4 11.1 13-0.1 1.3-9.9 126.2 10.7 190.5 22 68.4 22.2 96.4 22.2 97.6 0 6.7-5.4 12.1-12 12.1z" fill="#1B1C26" p-id="4060"></path><path d="M618.2 576.6s5.2 34.6 0 92.5 2.3 63.6-58.2 113.2" fill="#FFFFFF" p-id="4061"></path><path d="M560 794.3c-3.5 0-7-1.5-9.3-4.4-4.2-5.2-3.5-12.8 1.7-17 49.1-40.2 49.6-47.1 52.3-85.6 0.4-5.8 0.9-12.2 1.5-19.4 5-55.5 0.1-89.2 0.1-89.6-1-6.6 3.6-12.7 10.1-13.7s12.7 3.5 13.7 10.1c0.2 1.5 5.4 36.7 0.1 95.4-0.6 7-1.1 13.3-1.5 18.9-3.2 45.1-6.1 57.5-61.1 102.6-2.2 1.8-4.9 2.7-7.6 2.7z" fill="#1B1C26" p-id="4062"></path><path d="M368.7 517.6c-144.5-65.6-39.2-96.5-39.2-96.5s-1-70.5 18.9-94c31.9-37.6 58.7-6.6 97.8-63.2 41.9-60.6 123.6 12.5 123.8 12.9 20.4 50.2 73.4 33.9 73.5 33.9 42.8 11.9 10.5 156.2 10.5 156.2" fill="#FFFFFF" p-id="4063"></path><path d="M368.6 529.6c-1.7 0-3.4-0.3-5-1.1-58.6-26.6-85-50.9-83.2-76.4 1.5-21.8 24-34.2 37-39.6 0.4-21 3.3-71.6 21.7-93.3 16.7-19.7 32.9-23.6 47.3-27.1 16.4-4 30.6-7.4 49.8-35.2 14.9-21.6 36.5-31.6 62.3-28.8 39.5 4.2 80.1 37.9 82.6 44 15 37 51.8 28.9 59 26.9 2.1-0.6 4.4-0.6 6.4-0.1 50.1 13.9 27.4 134 19.2 170.5-1.5 6.5-7.9 10.6-14.4 9.1s-10.6-7.9-9.1-14.4c13.5-60.3 16.5-130.6 0.3-141-15 3.1-61.4 8.4-82.6-39.3-7.9-6.6-44-35.2-74.6-31.9-11.9 1.3-21.4 7.3-29.2 18.6-24.4 35.3-46.3 40.6-63.9 44.9-12.8 3.1-23 5.6-34.6 19.3-12.4 14.6-16.4 60.5-16.1 86 0.1 5.4-3.5 10.2-8.7 11.7-8.6 2.6-27.6 11.4-28.3 21.2-0.3 4.8 3.7 23 69.2 52.7 6.1 2.8 8.8 9.9 6 16-2.1 4.7-6.5 7.3-11.1 7.3z" fill="#1B1C26" p-id="4064"></path><path d="M614.3 395s-87.3-14.8-70.9 37c12.8 40.6 18.4 70.2 10.5 75.7-16.4 12.9-42.3 2.8-42.3 2.8" fill="#FFFFFF" p-id="4065"></path><path d="M532.7 526.4c-13.5 0-24.8-4.3-25.5-4.6-6.2-2.4-9.3-9.4-6.9-15.6 2.4-6.2 9.4-9.3 15.6-6.9 5.2 2 20.3 5.6 29.3-0.2 0.6-3.6 1-17.7-13.4-63.5-6.1-19.2-0.3-31.3 5.6-38.1 20.1-23.1 69.2-16.1 78.9-14.4 6.6 1.1 11 7.3 9.9 13.9-1.1 6.6-7.3 11-13.9 9.9-18.5-3.1-48.3-3.1-56.7 6.5-1 1.1-4 4.6-0.7 15 20.1 63.7 17.2 81.4 5.9 89.2-8.6 6.8-18.8 8.8-28.1 8.8z m13.7-28.1c-0.1 0.1-0.2 0.1-0.2 0.2 0-0.1 0.1-0.2 0.2-0.2z" fill="#1B1C26" p-id="4066"></path><path d="M556.1 559.5s-20.9 12.1-62.8 3.2" fill="#FFFFFF" p-id="4067"></path><path d="M522.6 578.1c-9 0-19.6-1-31.8-3.5-6.5-1.4-10.7-7.8-9.3-14.3 1.4-6.5 7.8-10.7 14.3-9.3 36.3 7.7 54.1-1.8 54.3-1.9 5.8-3.3 13.1-1.4 16.5 4.4 3.3 5.8 1.3 13.1-4.4 16.5-2 1.1-15.1 8.1-39.6 8.1z" fill="#1B1C26" p-id="4068"></path><path d="M584 247.1s34.7-32.3 60.5 0" fill="#FFFFFF" p-id="4069"></path><path d="M644.6 259.1c-3.5 0-7-1.6-9.4-4.5-4.9-6.2-10.2-9.4-16.3-9.8-11.2-0.8-23.3 7.9-26.6 11.1-4.9 4.5-12.5 4.3-17.1-0.6-4.5-4.9-4.3-12.5 0.6-17.1 2.1-2 21.2-19.2 44.8-17.5 12.7 0.9 24.3 7.4 33.4 18.8 4.2 5.2 3.3 12.8-1.9 17-2.2 1.8-4.9 2.6-7.5 2.6z" fill="#1B1C26" p-id="4070"></path><path d="M454.9 256.5c-22.3 0-47.6-8.6-58.2-39.2-2.2-6.3 1.1-13.2 7.4-15.4 6.3-2.2 13.2 1.1 15.4 7.4 11.9 34 54 20.4 55.7 19.8 6.3-2.1 13.2 1.3 15.3 7.6 2.1 6.3-1.3 13.2-7.6 15.3-7.5 2.6-17.4 4.5-28 4.5z" fill="#1B1C26" p-id="4071"></path><path d="M629.1 920.5c-5.6 0-10.6-3.9-11.8-9.5-1.4-6.5 2.8-12.9 9.3-14.3l86.2-18.4c12.5-2.7 22.2-12.1 25.4-24.5l25.7-132.5c1.3-6.5 7.6-10.8 14.1-9.5 6.5 1.3 10.8 7.6 9.5 14.1L761.7 859c-5.6 22-22.3 38.1-43.8 42.8l-86.2 18.5c-0.9 0.1-1.8 0.2-2.6 0.2z" fill="#1B1C26" p-id="4072"></path></svg>